<svg xmlns="http://www.w3.org/2000/svg" xmlns:xlink="http://www.w3.org/1999/xlink" width="40" zoomAndPan="magnify" viewBox="0 0 30 30.000001" height="40" preserveAspectRatio="xMidYMid meet" version="1.0"><defs><clipPath id="40828701d0"><path d="M 3.386719 0.410156 L 26.613281 0.410156 L 26.613281 28.714844 L 3.386719 28.714844 Z M 3.386719 0.410156 " clip-rule="nonzero"/></clipPath><clipPath id="9e4f06a248"><path d="M 4 0.410156 L 26.613281 0.410156 L 26.613281 28 L 4 28 Z M 4 0.410156 " clip-rule="nonzero"/></clipPath><clipPath id="f8016a212c"><path d="M 3.386719 2 L 26 2 L 26 28.714844 L 3.386719 28.714844 Z M 3.386719 2 " clip-rule="nonzero"/></clipPath><clipPath id="8181977be5"><path d="M 3.386719 0.410156 L 26.613281 0.410156 L 26.613281 28.714844 L 3.386719 28.714844 Z M 3.386719 0.410156 " clip-rule="nonzero"/></clipPath></defs><g clip-path="url(#40828701d0)"><path fill="#1c0072" d="M 26.351562 25.839844 C 26.28125 25.929688 26.199219 26.011719 26.109375 26.074219 C 26.109375 26.074219 26.105469 26.074219 26.105469 26.074219 C 26.105469 26.074219 26.105469 26.078125 26.105469 26.078125 C 26.105469 26.078125 26.105469 26.078125 26.101562 26.078125 L 24.738281 27.015625 C 24.59375 27.113281 24.429688 27.171875 24.25 27.191406 L 9.710938 28.707031 C 9.671875 28.710938 9.632812 28.714844 9.59375 28.714844 C 8.992188 28.714844 8.421875 28.238281 8.289062 27.601562 L 3.484375 4.296875 C 3.386719 3.824219 3.558594 3.355469 3.921875 3.105469 L 5.285156 2.171875 C 5.285156 2.171875 5.285156 2.171875 5.289062 2.167969 C 5.429688 2.074219 5.59375 2.011719 5.773438 1.992188 L 20.3125 0.476562 C 20.957031 0.410156 21.59375 0.90625 21.734375 1.585938 L 26.539062 24.890625 C 26.609375 25.234375 26.542969 25.578125 26.351562 25.839844 Z M 26.351562 25.839844 " fill-opacity="1" fill-rule="nonzero"/></g><g clip-path="url(#9e4f06a248)"><path fill="#ffc943" d="M 26.402344 24.917969 L 21.59375 1.613281 C 21.476562 1.039062 20.96875 0.609375 20.429688 0.609375 C 20.394531 0.609375 20.359375 0.613281 20.328125 0.617188 L 5.789062 2.132812 C 5.527344 2.160156 5.304688 2.289062 5.152344 2.492188 C 4.984375 2.722656 4.921875 3.027344 4.984375 3.332031 L 9.792969 26.636719 C 9.917969 27.246094 10.488281 27.691406 11.0625 27.632812 L 25.601562 26.117188 C 25.859375 26.089844 26.085938 25.960938 26.238281 25.753906 C 26.40625 25.527344 26.464844 25.222656 26.402344 24.917969 Z M 24.414062 22.019531 L 24.835938 24.074219 C 24.863281 24.214844 24.835938 24.359375 24.757812 24.464844 C 24.683594 24.566406 24.574219 24.628906 24.449219 24.640625 L 22.503906 24.84375 C 22.488281 24.847656 22.472656 24.847656 22.457031 24.847656 C 22.210938 24.847656 21.972656 24.652344 21.921875 24.390625 L 21.496094 22.339844 C 21.46875 22.195312 21.496094 22.054688 21.578125 21.945312 C 21.648438 21.84375 21.757812 21.78125 21.886719 21.769531 L 23.828125 21.566406 C 24.09375 21.539062 24.355469 21.742188 24.414062 22.019531 Z M 12.675781 15.007812 C 12.746094 14.90625 12.859375 14.84375 12.984375 14.832031 L 14.925781 14.628906 C 15.191406 14.601562 15.453125 14.804688 15.511719 15.082031 L 15.933594 17.136719 C 15.964844 17.277344 15.933594 17.421875 15.855469 17.527344 C 15.78125 17.628906 15.671875 17.691406 15.546875 17.703125 L 13.601562 17.90625 C 13.585938 17.910156 13.570312 17.910156 13.554688 17.910156 C 13.304688 17.910156 13.070312 17.714844 13.019531 17.453125 L 12.59375 15.402344 C 12.566406 15.257812 12.59375 15.117188 12.675781 15.007812 Z M 12.222656 13.570312 L 11.796875 11.519531 C 11.769531 11.375 11.796875 11.234375 11.878906 11.125 C 11.953125 11.023438 12.0625 10.964844 12.1875 10.949219 L 14.128906 10.746094 C 14.394531 10.71875 14.65625 10.921875 14.714844 11.199219 L 15.136719 13.253906 C 15.167969 13.394531 15.140625 13.539062 15.058594 13.644531 C 14.984375 13.746094 14.875 13.808594 14.75 13.820312 L 12.808594 14.023438 C 12.789062 14.027344 12.773438 14.027344 12.757812 14.027344 C 12.511719 14.027344 12.277344 13.832031 12.222656 13.570312 Z M 20.304688 20.984375 C 20.234375 21.085938 20.121094 21.148438 19.996094 21.160156 L 18.054688 21.363281 C 18.039062 21.367188 18.019531 21.367188 18.003906 21.367188 C 17.757812 21.367188 17.523438 21.171875 17.46875 20.910156 L 17.046875 18.859375 C 17.015625 18.71875 17.046875 18.574219 17.125 18.464844 C 17.199219 18.367188 17.308594 18.304688 17.433594 18.289062 L 19.378906 18.085938 C 19.640625 18.058594 19.90625 18.261719 19.960938 18.539062 L 20.386719 20.59375 C 20.414062 20.734375 20.386719 20.878906 20.304688 20.984375 Z M 20.757812 22.402344 L 21.183594 24.453125 C 21.210938 24.597656 21.183594 24.738281 21.101562 24.847656 C 21.027344 24.949219 20.917969 25.007812 20.792969 25.023438 L 18.851562 25.226562 C 18.832031 25.226562 18.816406 25.226562 18.800781 25.226562 C 18.554688 25.226562 18.320312 25.03125 18.265625 24.773438 L 17.84375 22.71875 C 17.8125 22.578125 17.839844 22.433594 17.921875 22.328125 C 17.996094 22.226562 18.105469 22.164062 18.230469 22.152344 L 20.171875 21.949219 C 20.4375 21.921875 20.699219 22.125 20.757812 22.402344 Z M 17.449219 25.25 C 17.375 25.351562 17.265625 25.414062 17.140625 25.425781 L 15.195312 25.628906 C 15.179688 25.628906 15.164062 25.632812 15.148438 25.632812 C 14.898438 25.632812 14.664062 25.4375 14.609375 25.175781 L 14.1875 23.121094 C 14.160156 22.980469 14.1875 22.835938 14.265625 22.730469 C 14.339844 22.628906 14.449219 22.566406 14.574219 22.554688 L 16.519531 22.351562 C 16.785156 22.324219 17.046875 22.527344 17.105469 22.804688 L 17.527344 24.859375 C 17.554688 25 17.527344 25.144531 17.449219 25.25 Z M 19.507812 17.125 C 19.4375 17.226562 19.328125 17.289062 19.199219 17.300781 L 17.257812 17.503906 C 17.242188 17.503906 17.226562 17.507812 17.207031 17.507812 C 16.960938 17.507812 16.726562 17.3125 16.671875 17.050781 L 16.25 14.996094 C 16.21875 14.855469 16.25 14.710938 16.328125 14.605469 C 16.402344 14.503906 16.511719 14.441406 16.636719 14.429688 L 18.582031 14.226562 C 18.847656 14.199219 19.109375 14.402344 19.164062 14.679688 L 19.589844 16.734375 C 19.617188 16.875 19.589844 17.015625 19.507812 17.125 Z M 18.714844 13.265625 C 18.640625 13.363281 18.53125 13.425781 18.40625 13.441406 L 16.460938 13.644531 C 16.445312 13.644531 16.429688 13.644531 16.414062 13.644531 C 16.164062 13.644531 15.929688 13.449219 15.875 13.191406 L 15.453125 11.136719 C 15.421875 10.996094 15.453125 10.851562 15.53125 10.742188 C 15.605469 10.644531 15.714844 10.582031 15.839844 10.570312 L 17.785156 10.367188 C 18.050781 10.339844 18.3125 10.542969 18.371094 10.820312 L 18.792969 12.871094 C 18.820312 13.015625 18.792969 13.15625 18.714844 13.265625 Z M 13.46875 18.847656 C 13.542969 18.746094 13.652344 18.683594 13.78125 18.671875 L 15.722656 18.46875 C 15.988281 18.441406 16.25 18.644531 16.308594 18.921875 L 16.730469 20.976562 C 16.761719 21.117188 16.730469 21.257812 16.652344 21.367188 C 16.578125 21.46875 16.46875 21.53125 16.34375 21.542969 L 14.398438 21.746094 C 14.382812 21.746094 14.367188 21.746094 14.351562 21.746094 C 14.101562 21.746094 13.867188 21.554688 13.816406 21.292969 L 13.390625 19.242188 C 13.363281 19.097656 13.390625 18.953125 13.46875 18.847656 Z M 23.617188 18.160156 L 24.039062 20.210938 C 24.070312 20.355469 24.039062 20.496094 23.960938 20.605469 C 23.886719 20.703125 23.777344 20.765625 23.652344 20.78125 L 21.707031 20.984375 C 21.691406 20.984375 21.675781 20.984375 21.660156 20.984375 C 21.410156 20.984375 21.175781 20.789062 21.125 20.53125 L 20.699219 18.476562 C 20.671875 18.335938 20.699219 18.191406 20.78125 18.085938 C 20.851562 17.984375 20.964844 17.921875 21.089844 17.910156 L 23.03125 17.707031 C 23.296875 17.679688 23.558594 17.882812 23.617188 18.160156 Z M 22.820312 14.296875 L 23.242188 16.351562 C 23.273438 16.492188 23.242188 16.636719 23.164062 16.746094 C 23.089844 16.84375 22.980469 16.90625 22.855469 16.917969 L 20.914062 17.121094 C 20.898438 17.125 20.878906 17.125 20.863281 17.125 C 20.617188 17.125 20.382812 16.929688 20.328125 16.667969 L 19.902344 14.617188 C 19.875 14.472656 19.902344 14.332031 19.984375 14.222656 C 20.058594 14.121094 20.167969 14.0625 20.292969 14.046875 L 22.234375 13.84375 C 22.5 13.816406 22.761719 14.019531 22.820312 14.296875 Z M 22.023438 10.4375 L 22.445312 12.492188 C 22.476562 12.632812 22.449219 12.777344 22.367188 12.882812 C 22.292969 12.984375 22.183594 13.046875 22.058594 13.058594 L 20.117188 13.261719 C 20.101562 13.261719 20.082031 13.265625 20.066406 13.265625 C 19.820312 13.265625 19.585938 13.070312 19.53125 12.808594 L 19.109375 10.753906 C 19.078125 10.613281 19.109375 10.46875 19.1875 10.363281 C 19.261719 10.261719 19.371094 10.199219 19.496094 10.1875 L 21.441406 9.984375 C 21.703125 9.957031 21.964844 10.160156 22.023438 10.4375 Z M 21.648438 8.621094 C 21.6875 8.808594 21.648438 9 21.542969 9.144531 C 21.445312 9.277344 21.300781 9.359375 21.132812 9.378906 L 19.515625 9.546875 C 19.496094 9.546875 19.472656 9.550781 19.453125 9.550781 C 19.121094 9.550781 18.804688 9.289062 18.734375 8.9375 C 18.695312 8.746094 18.734375 8.554688 18.839844 8.410156 C 18.9375 8.28125 19.082031 8.195312 19.25 8.179688 L 20.863281 8.011719 C 21.21875 7.972656 21.570312 8.246094 21.648438 8.621094 Z M 7.960938 8.851562 C 7.710938 8.851562 7.476562 8.65625 7.421875 8.390625 L 6.53125 4.070312 C 6.5 3.929688 6.53125 3.78125 6.609375 3.671875 C 6.683594 3.574219 6.796875 3.511719 6.921875 3.496094 L 19.816406 2.152344 C 20.085938 2.125 20.351562 2.328125 20.410156 2.609375 L 21.300781 6.929688 C 21.328125 7.074219 21.300781 7.21875 21.21875 7.328125 C 21.144531 7.429688 21.035156 7.492188 20.910156 7.503906 L 8.011719 8.851562 C 7.996094 8.851562 7.980469 8.851562 7.960938 8.851562 Z M 8.566406 13.953125 L 8.144531 11.898438 C 8.113281 11.757812 8.144531 11.613281 8.222656 11.507812 C 8.296875 11.40625 8.40625 11.34375 8.53125 11.332031 L 10.476562 11.128906 C 10.742188 11.101562 11.003906 11.304688 11.058594 11.582031 L 11.484375 13.632812 C 11.511719 13.777344 11.484375 13.917969 11.402344 14.027344 C 11.332031 14.128906 11.222656 14.191406 11.09375 14.203125 L 9.152344 14.40625 C 9.136719 14.40625 9.121094 14.40625 9.101562 14.40625 C 8.855469 14.40625 8.621094 14.214844 8.566406 13.953125 Z M 9.363281 17.8125 L 8.941406 15.761719 C 8.910156 15.617188 8.941406 15.476562 9.019531 15.367188 C 9.09375 15.265625 9.203125 15.203125 9.328125 15.191406 L 11.269531 14.988281 C 11.535156 14.960938 11.800781 15.164062 11.855469 15.441406 L 12.28125 17.496094 C 12.308594 17.636719 12.28125 17.78125 12.199219 17.886719 C 12.125 17.988281 12.015625 18.050781 11.890625 18.0625 L 9.949219 18.265625 C 9.933594 18.269531 9.914062 18.269531 9.898438 18.269531 C 9.652344 18.269531 9.417969 18.074219 9.363281 17.8125 Z M 10.160156 21.675781 L 9.734375 19.621094 C 9.707031 19.480469 9.734375 19.335938 9.816406 19.230469 C 9.890625 19.128906 10 19.066406 10.125 19.054688 L 12.066406 18.851562 C 12.332031 18.824219 12.59375 19.027344 12.652344 19.304688 L 13.074219 21.355469 C 13.105469 21.5 13.078125 21.640625 12.996094 21.75 C 12.921875 21.847656 12.8125 21.910156 12.6875 21.925781 L 10.746094 22.125 C 10.726562 22.128906 10.710938 22.128906 10.695312 22.128906 C 10.449219 22.128906 10.214844 21.933594 10.160156 21.675781 Z M 10.613281 23.089844 C 10.6875 22.988281 10.796875 22.925781 10.921875 22.914062 L 12.863281 22.710938 C 13.128906 22.683594 13.390625 22.886719 13.449219 23.164062 L 13.871094 25.21875 C 13.902344 25.359375 13.871094 25.503906 13.792969 25.609375 C 13.71875 25.710938 13.609375 25.773438 13.484375 25.785156 L 11.539062 25.988281 C 11.523438 25.988281 11.507812 25.992188 11.492188 25.992188 C 11.246094 25.992188 11.007812 25.796875 10.957031 25.535156 L 10.53125 23.480469 C 10.503906 23.339844 10.53125 23.199219 10.613281 23.089844 Z M 10.613281 23.089844 " fill-opacity="1" fill-rule="nonzero"/></g><path fill="#4db557" d="M 18.433594 5.113281 C 18.371094 4.8125 18.363281 4.546875 18.40625 4.285156 C 18.457031 4.015625 18.625 3.835938 18.898438 3.808594 C 19.121094 3.785156 19.316406 3.882812 19.492188 4.105469 C 19.664062 4.320312 19.785156 4.59375 19.855469 4.921875 C 19.925781 5.261719 19.910156 5.53125 19.8125 5.746094 C 19.71875 5.964844 19.558594 6.078125 19.339844 6.101562 C 18.90625 6.148438 18.527344 5.621094 18.433594 5.113281 Z M 7.996094 8.710938 C 7.800781 8.730469 7.601562 8.574219 7.558594 8.363281 L 6.667969 4.042969 C 6.648438 3.9375 6.667969 3.835938 6.722656 3.757812 C 6.773438 3.6875 6.851562 3.644531 6.9375 3.636719 L 19.832031 2.289062 C 20.03125 2.269531 20.226562 2.425781 20.269531 2.636719 L 21.160156 6.957031 C 21.183594 7.0625 21.164062 7.167969 21.105469 7.246094 C 21.054688 7.3125 20.980469 7.355469 20.894531 7.363281 Z M 18.117188 5.191406 C 18.199219 5.585938 18.367188 5.898438 18.617188 6.128906 C 18.867188 6.359375 19.132812 6.460938 19.421875 6.429688 C 19.714844 6.398438 19.941406 6.242188 20.085938 5.957031 C 20.230469 5.671875 20.261719 5.3125 20.171875 4.875 C 20.078125 4.425781 19.910156 4.074219 19.671875 3.820312 C 19.433594 3.5625 19.152344 3.449219 18.835938 3.484375 C 18.460938 3.523438 18.214844 3.757812 18.125 4.085938 C 18.03125 4.414062 18.035156 4.792969 18.117188 5.191406 Z M 20.1875 22.089844 C 20.382812 22.066406 20.578125 22.222656 20.621094 22.429688 L 21.042969 24.484375 C 21.0625 24.585938 21.042969 24.6875 20.988281 24.765625 C 20.9375 24.832031 20.863281 24.875 20.777344 24.882812 L 18.835938 25.085938 C 18.640625 25.105469 18.445312 24.953125 18.402344 24.746094 L 17.980469 22.691406 C 17.960938 22.589844 17.980469 22.484375 18.035156 22.410156 C 18.085938 22.34375 18.160156 22.300781 18.246094 22.289062 Z M 20.34375 23.863281 L 18.828125 24.019531 C 18.777344 24.027344 18.746094 24.070312 18.757812 24.125 C 18.769531 24.175781 18.816406 24.210938 18.867188 24.207031 L 20.382812 24.050781 C 20.429688 24.042969 20.460938 23.996094 20.449219 23.945312 C 20.441406 23.894531 20.390625 23.855469 20.34375 23.863281 Z M 20.160156 22.964844 L 18.644531 23.125 C 18.59375 23.128906 18.5625 23.175781 18.574219 23.226562 C 18.585938 23.277344 18.632812 23.316406 18.679688 23.3125 L 20.195312 23.152344 C 20.246094 23.148438 20.277344 23.101562 20.265625 23.050781 C 20.253906 23 20.207031 22.960938 20.160156 22.964844 Z M 20.160156 22.964844 " fill-opacity="1" fill-rule="nonzero"/><g clip-path="url(#f8016a212c)"><path fill="#db354d" d="M 9.699219 28.570312 C 9.125 28.628906 8.554688 28.183594 8.429688 27.570312 L 3.621094 4.269531 C 3.535156 3.84375 3.679688 3.445312 4 3.222656 L 4.933594 2.582031 C 4.929688 2.59375 4.921875 2.605469 4.917969 2.617188 C 4.917969 2.621094 4.917969 2.621094 4.917969 2.621094 C 4.914062 2.625 4.910156 2.632812 4.910156 2.636719 C 4.90625 2.644531 4.902344 2.652344 4.902344 2.65625 C 4.886719 2.691406 4.875 2.726562 4.867188 2.753906 L 4.863281 2.761719 C 4.855469 2.792969 4.847656 2.820312 4.84375 2.855469 C 4.839844 2.867188 4.839844 2.875 4.835938 2.886719 C 4.835938 2.894531 4.835938 2.90625 4.832031 2.914062 C 4.832031 2.914062 4.832031 2.917969 4.832031 2.917969 C 4.832031 2.9375 4.828125 2.953125 4.824219 2.972656 L 4.824219 2.996094 C 4.820312 3.007812 4.824219 3.019531 4.820312 3.035156 C 4.820312 3.039062 4.820312 3.046875 4.820312 3.054688 C 4.820312 3.070312 4.820312 3.085938 4.820312 3.101562 C 4.820312 3.109375 4.820312 3.113281 4.820312 3.121094 L 4.820312 3.128906 C 4.820312 3.15625 4.824219 3.1875 4.824219 3.21875 C 4.828125 3.230469 4.828125 3.238281 4.828125 3.246094 C 4.832031 3.289062 4.839844 3.328125 4.847656 3.359375 L 9.652344 26.664062 C 9.679688 26.785156 9.71875 26.898438 9.769531 27.003906 C 9.789062 27.039062 9.808594 27.074219 9.828125 27.105469 C 9.828125 27.109375 9.828125 27.109375 9.828125 27.109375 C 9.847656 27.140625 9.871094 27.171875 9.890625 27.203125 C 9.894531 27.207031 9.894531 27.207031 9.894531 27.210938 C 9.917969 27.238281 9.941406 27.265625 9.964844 27.296875 C 9.964844 27.296875 9.96875 27.300781 9.96875 27.300781 C 9.992188 27.328125 10.015625 27.355469 10.042969 27.382812 C 10.042969 27.382812 10.046875 27.386719 10.050781 27.386719 C 10.074219 27.414062 10.101562 27.4375 10.128906 27.460938 C 10.128906 27.460938 10.132812 27.460938 10.132812 27.464844 C 10.160156 27.484375 10.1875 27.507812 10.214844 27.527344 C 10.21875 27.53125 10.21875 27.53125 10.222656 27.535156 C 10.25 27.554688 10.277344 27.570312 10.304688 27.589844 C 10.3125 27.589844 10.316406 27.59375 10.320312 27.597656 C 10.347656 27.613281 10.375 27.628906 10.402344 27.644531 C 10.410156 27.644531 10.417969 27.648438 10.425781 27.652344 C 10.453125 27.667969 10.480469 27.679688 10.507812 27.691406 C 10.515625 27.691406 10.523438 27.695312 10.53125 27.699219 C 10.558594 27.710938 10.585938 27.71875 10.613281 27.726562 C 10.621094 27.730469 10.632812 27.730469 10.640625 27.734375 C 10.667969 27.742188 10.695312 27.75 10.726562 27.753906 C 10.734375 27.757812 10.742188 27.757812 10.75 27.761719 C 10.78125 27.765625 10.808594 27.769531 10.839844 27.773438 C 10.847656 27.773438 10.855469 27.773438 10.859375 27.773438 C 10.890625 27.777344 10.921875 27.777344 10.953125 27.777344 C 10.953125 27.777344 10.957031 27.78125 10.960938 27.78125 C 10.964844 27.78125 10.964844 27.777344 10.96875 27.777344 C 11.003906 27.777344 11.035156 27.777344 11.066406 27.773438 C 11.070312 27.773438 11.074219 27.773438 11.078125 27.773438 L 25.589844 26.257812 L 24.660156 26.898438 C 24.535156 26.984375 24.390625 27.035156 24.234375 27.050781 Z M 21.886719 10.464844 L 22.308594 12.519531 C 22.328125 12.621094 22.308594 12.726562 22.253906 12.800781 C 22.203125 12.867188 22.128906 12.910156 22.046875 12.917969 L 20.101562 13.121094 C 19.90625 13.144531 19.714844 12.988281 19.671875 12.78125 L 19.246094 10.726562 C 19.226562 10.625 19.246094 10.519531 19.300781 10.445312 C 19.351562 10.378906 19.425781 10.335938 19.511719 10.328125 L 21.453125 10.125 C 21.464844 10.121094 21.476562 10.121094 21.488281 10.121094 C 21.671875 10.121094 21.84375 10.269531 21.886719 10.464844 Z M 20.515625 11.046875 C 20.535156 11.128906 20.609375 11.1875 20.6875 11.179688 C 20.761719 11.171875 20.8125 11.097656 20.792969 11.019531 C 20.777344 10.9375 20.703125 10.878906 20.625 10.886719 C 20.550781 10.894531 20.5 10.964844 20.515625 11.046875 Z M 21.039062 12.199219 C 21.019531 12.117188 20.945312 12.058594 20.867188 12.066406 C 20.792969 12.074219 20.742188 12.144531 20.761719 12.226562 C 20.777344 12.308594 20.851562 12.367188 20.929688 12.359375 C 21.003906 12.351562 21.054688 12.277344 21.039062 12.199219 Z M 21.625 11.535156 C 21.613281 11.484375 21.566406 11.445312 21.515625 11.449219 L 20 11.609375 C 19.953125 11.613281 19.921875 11.660156 19.929688 11.710938 C 19.941406 11.761719 19.992188 11.800781 20.039062 11.796875 L 21.554688 11.636719 C 21.601562 11.632812 21.632812 11.585938 21.625 11.535156 Z M 22.679688 14.324219 L 23.105469 16.378906 C 23.125 16.484375 23.105469 16.585938 23.050781 16.660156 C 23 16.730469 22.925781 16.769531 22.839844 16.78125 L 20.898438 16.980469 C 20.703125 17.003906 20.507812 16.847656 20.464844 16.640625 L 20.042969 14.589844 C 20.023438 14.484375 20.042969 14.382812 20.097656 14.304688 C 20.148438 14.238281 20.222656 14.195312 20.308594 14.1875 L 22.25 13.984375 C 22.261719 13.984375 22.273438 13.984375 22.285156 13.984375 C 22.46875 13.984375 22.640625 14.128906 22.679688 14.324219 Z M 22.277344 15.921875 L 21.699219 15.46875 L 21.546875 15.351562 L 21.699219 15.46875 L 22.070312 14.921875 C 22.097656 14.882812 22.082031 14.820312 22.042969 14.789062 C 22.019531 14.773438 21.996094 14.765625 21.972656 14.769531 C 21.949219 14.769531 21.929688 14.78125 21.917969 14.800781 L 21.546875 15.351562 L 20.96875 14.902344 C 20.949219 14.882812 20.925781 14.878906 20.902344 14.878906 C 20.878906 14.882812 20.859375 14.894531 20.84375 14.914062 C 20.816406 14.953125 20.832031 15.011719 20.871094 15.046875 L 21.449219 15.496094 L 21.078125 16.046875 C 21.050781 16.085938 21.0625 16.144531 21.105469 16.179688 C 21.125 16.195312 21.152344 16.203125 21.175781 16.199219 C 21.195312 16.195312 21.21875 16.183594 21.230469 16.164062 L 21.601562 15.617188 L 22.179688 16.066406 C 22.199219 16.082031 22.222656 16.089844 22.246094 16.085938 C 22.269531 16.085938 22.289062 16.074219 22.304688 16.054688 C 22.328125 16.011719 22.316406 15.953125 22.277344 15.921875 Z M 23.476562 18.1875 L 23.902344 20.242188 C 23.921875 20.34375 23.902344 20.445312 23.847656 20.523438 C 23.796875 20.589844 23.722656 20.632812 23.636719 20.640625 L 21.695312 20.84375 C 21.5 20.863281 21.304688 20.710938 21.261719 20.503906 L 20.839844 18.449219 C 20.816406 18.347656 20.839844 18.242188 20.894531 18.167969 C 20.945312 18.101562 21.019531 18.058594 21.105469 18.046875 L 23.046875 17.847656 C 23.058594 17.84375 23.070312 17.84375 23.082031 17.84375 C 23.265625 17.84375 23.4375 17.992188 23.476562 18.1875 Z M 23.214844 19.257812 C 23.207031 19.203125 23.15625 19.167969 23.109375 19.171875 L 21.59375 19.332031 C 21.542969 19.335938 21.511719 19.382812 21.523438 19.433594 C 21.535156 19.484375 21.582031 19.523438 21.632812 19.515625 L 23.148438 19.359375 C 23.195312 19.355469 23.226562 19.308594 23.214844 19.257812 Z M 24.273438 22.046875 L 24.695312 24.101562 C 24.71875 24.203125 24.699219 24.308594 24.640625 24.382812 C 24.59375 24.449219 24.519531 24.492188 24.433594 24.5 L 22.492188 24.703125 C 22.296875 24.722656 22.101562 24.570312 22.058594 24.363281 L 21.636719 22.308594 C 21.613281 22.207031 21.632812 22.105469 21.691406 22.027344 C 21.742188 21.960938 21.816406 21.917969 21.898438 21.910156 L 23.84375 21.707031 C 23.855469 21.707031 23.867188 21.703125 23.878906 21.703125 C 24.058594 21.703125 24.234375 21.851562 24.273438 22.046875 Z M 23.417969 23.996094 L 23.273438 23.289062 L 23.234375 23.101562 L 23.089844 22.394531 C 23.078125 22.34375 23.03125 22.304688 22.980469 22.3125 C 22.933594 22.316406 22.902344 22.363281 22.914062 22.414062 L 23.058594 23.121094 L 22.390625 23.191406 C 22.339844 23.195312 22.308594 23.242188 22.320312 23.292969 C 22.332031 23.34375 22.378906 23.382812 22.429688 23.378906 L 23.097656 23.308594 L 23.242188 24.015625 C 23.253906 24.066406 23.300781 24.105469 23.351562 24.101562 C 23.398438 24.09375 23.429688 24.046875 23.417969 23.996094 Z M 24.011719 23.117188 C 24.003906 23.066406 23.953125 23.027344 23.90625 23.03125 L 23.234375 23.101562 L 23.273438 23.289062 L 23.945312 23.21875 C 23.992188 23.214844 24.023438 23.167969 24.011719 23.117188 Z M 24.011719 23.117188 " fill-opacity="1" fill-rule="nonzero"/></g><path fill="#f9ede0" d="M 20.878906 8.152344 C 21.164062 8.121094 21.449219 8.34375 21.511719 8.648438 C 21.542969 8.800781 21.511719 8.949219 21.429688 9.0625 C 21.355469 9.164062 21.246094 9.226562 21.117188 9.238281 L 19.503906 9.40625 C 19.21875 9.4375 18.933594 9.214844 18.871094 8.910156 C 18.839844 8.757812 18.871094 8.605469 18.953125 8.496094 C 19.027344 8.394531 19.136719 8.332031 19.261719 8.320312 Z M 18.117188 5.191406 C 18.035156 4.792969 18.03125 4.414062 18.125 4.085938 C 18.214844 3.757812 18.460938 3.523438 18.835938 3.484375 C 19.152344 3.449219 19.433594 3.5625 19.671875 3.820312 C 19.910156 4.074219 20.078125 4.425781 20.171875 4.875 C 20.261719 5.3125 20.230469 5.671875 20.085938 5.957031 C 19.941406 6.242188 19.714844 6.398438 19.421875 6.429688 C 19.132812 6.460938 18.867188 6.359375 18.617188 6.128906 C 18.367188 5.898438 18.199219 5.585938 18.117188 5.191406 Z M 18.433594 5.113281 C 18.527344 5.621094 18.90625 6.148438 19.339844 6.101562 C 19.558594 6.078125 19.71875 5.964844 19.8125 5.746094 C 19.910156 5.53125 19.925781 5.261719 19.855469 4.921875 C 19.785156 4.59375 19.664062 4.320312 19.492188 4.105469 C 19.316406 3.882812 19.121094 3.785156 18.898438 3.808594 C 18.625 3.835938 18.457031 4.015625 18.40625 4.285156 C 18.363281 4.546875 18.371094 4.8125 18.433594 5.113281 Z M 11.875 17.921875 C 11.960938 17.914062 12.035156 17.871094 12.085938 17.804688 C 12.140625 17.730469 12.164062 17.625 12.140625 17.523438 L 11.71875 15.46875 C 11.675781 15.261719 11.480469 15.109375 11.285156 15.128906 L 9.34375 15.332031 C 9.257812 15.339844 9.183594 15.382812 9.132812 15.449219 C 9.078125 15.527344 9.058594 15.628906 9.078125 15.730469 L 9.503906 17.785156 C 9.546875 17.992188 9.738281 18.148438 9.933594 18.125 Z M 18.652344 12.898438 L 18.230469 10.847656 C 18.1875 10.636719 17.996094 10.484375 17.800781 10.503906 L 15.855469 10.707031 C 15.769531 10.71875 15.695312 10.757812 15.644531 10.828125 C 15.589844 10.902344 15.570312 11.003906 15.589844 11.109375 L 16.015625 13.160156 C 16.058594 13.371094 16.25 13.523438 16.445312 13.503906 L 18.390625 13.300781 C 18.476562 13.292969 18.550781 13.25 18.597656 13.183594 C 18.65625 13.105469 18.675781 13.003906 18.652344 12.898438 Z M 14.734375 13.683594 C 14.820312 13.671875 14.894531 13.628906 14.945312 13.5625 C 15 13.488281 15.019531 13.382812 15 13.28125 L 14.578125 11.226562 C 14.535156 11.03125 14.363281 10.886719 14.179688 10.886719 C 14.167969 10.886719 14.15625 10.886719 14.144531 10.886719 L 12.203125 11.089844 C 12.117188 11.097656 12.042969 11.140625 11.992188 11.207031 C 11.9375 11.285156 11.914062 11.386719 11.9375 11.488281 L 12.359375 13.542969 C 12.402344 13.75 12.597656 13.90625 12.792969 13.882812 Z M 11.082031 14.0625 C 11.164062 14.054688 11.238281 14.011719 11.289062 13.945312 C 11.347656 13.867188 11.367188 13.765625 11.34375 13.664062 L 10.921875 11.609375 C 10.878906 11.402344 10.683594 11.246094 10.488281 11.269531 L 8.546875 11.472656 C 8.460938 11.480469 8.386719 11.523438 8.335938 11.589844 C 8.28125 11.664062 8.261719 11.769531 8.28125 11.871094 L 8.707031 13.925781 C 8.75 14.132812 8.941406 14.285156 9.136719 14.265625 Z M 19.449219 16.761719 L 19.027344 14.707031 C 18.984375 14.5 18.789062 14.347656 18.59375 14.367188 L 16.652344 14.570312 C 16.566406 14.578125 16.492188 14.621094 16.441406 14.6875 C 16.386719 14.765625 16.367188 14.867188 16.386719 14.96875 L 16.8125 17.023438 C 16.855469 17.230469 17.046875 17.382812 17.242188 17.363281 L 19.1875 17.160156 C 19.269531 17.152344 19.347656 17.109375 19.394531 17.042969 C 19.453125 16.964844 19.472656 16.863281 19.449219 16.761719 Z M 12.734375 15.371094 L 13.15625 17.425781 C 13.199219 17.632812 13.394531 17.789062 13.589844 17.765625 L 15.53125 17.5625 C 15.617188 17.554688 15.691406 17.511719 15.742188 17.445312 C 15.796875 17.371094 15.816406 17.265625 15.796875 17.164062 L 15.371094 15.109375 C 15.328125 14.902344 15.136719 14.75 14.941406 14.769531 L 12.996094 14.972656 C 12.914062 14.980469 12.839844 15.023438 12.789062 15.089844 C 12.730469 15.167969 12.710938 15.269531 12.734375 15.371094 Z M 13.53125 19.210938 L 13.953125 21.265625 C 13.996094 21.472656 14.191406 21.625 14.382812 21.605469 L 16.328125 21.402344 C 16.414062 21.394531 16.488281 21.351562 16.539062 21.285156 C 16.59375 21.207031 16.613281 21.105469 16.59375 21.003906 L 16.167969 18.949219 C 16.128906 18.753906 15.957031 18.605469 15.773438 18.605469 C 15.761719 18.605469 15.75 18.609375 15.738281 18.609375 L 13.792969 18.8125 C 13.707031 18.820312 13.632812 18.863281 13.585938 18.929688 C 13.527344 19.007812 13.507812 19.109375 13.53125 19.210938 Z M 20.246094 20.621094 L 19.824219 18.570312 C 19.78125 18.371094 19.609375 18.226562 19.425781 18.226562 C 19.414062 18.226562 19.402344 18.226562 19.390625 18.226562 L 17.449219 18.429688 C 17.363281 18.4375 17.289062 18.480469 17.238281 18.546875 C 17.183594 18.625 17.164062 18.726562 17.183594 18.832031 L 17.609375 20.882812 C 17.652344 21.09375 17.84375 21.246094 18.039062 21.222656 L 19.980469 21.023438 C 20.066406 21.011719 20.140625 20.96875 20.191406 20.902344 C 20.25 20.828125 20.269531 20.726562 20.246094 20.621094 Z M 12.671875 21.785156 C 12.757812 21.773438 12.832031 21.734375 12.882812 21.664062 C 12.9375 21.589844 12.957031 21.488281 12.9375 21.382812 L 12.515625 19.332031 C 12.472656 19.136719 12.300781 18.988281 12.117188 18.988281 C 12.105469 18.988281 12.09375 18.988281 12.082031 18.988281 L 10.140625 19.191406 C 10.054688 19.203125 9.980469 19.242188 9.929688 19.3125 C 9.875 19.386719 9.855469 19.492188 9.875 19.59375 L 10.296875 21.644531 C 10.339844 21.855469 10.535156 22.007812 10.730469 21.988281 Z M 22.070312 14.921875 C 22.097656 14.882812 22.082031 14.820312 22.042969 14.789062 C 22.019531 14.773438 21.996094 14.765625 21.972656 14.769531 C 21.949219 14.769531 21.929688 14.78125 21.917969 14.800781 L 21.546875 15.351562 L 21.699219 15.46875 Z M 22.277344 15.921875 L 21.699219 15.46875 L 21.546875 15.351562 L 20.96875 14.902344 C 20.949219 14.882812 20.925781 14.878906 20.902344 14.878906 C 20.878906 14.882812 20.859375 14.894531 20.84375 14.914062 C 20.816406 14.953125 20.832031 15.011719 20.871094 15.046875 L 21.449219 15.496094 L 21.078125 16.046875 C 21.050781 16.085938 21.0625 16.144531 21.105469 16.179688 C 21.125 16.195312 21.152344 16.203125 21.175781 16.199219 C 21.195312 16.195312 21.21875 16.183594 21.230469 16.164062 L 21.601562 15.617188 L 22.179688 16.066406 C 22.199219 16.082031 22.222656 16.089844 22.246094 16.085938 C 22.269531 16.085938 22.289062 16.074219 22.304688 16.054688 C 22.328125 16.011719 22.316406 15.953125 22.277344 15.921875 Z M 10.671875 23.453125 L 11.09375 25.507812 C 11.136719 25.714844 11.332031 25.867188 11.527344 25.847656 L 13.46875 25.644531 C 13.554688 25.636719 13.628906 25.59375 13.679688 25.527344 C 13.734375 25.453125 13.753906 25.347656 13.734375 25.246094 L 13.308594 23.191406 C 13.265625 22.984375 13.074219 22.832031 12.878906 22.851562 L 10.933594 23.054688 C 10.851562 23.0625 10.777344 23.105469 10.726562 23.171875 C 10.671875 23.25 10.648438 23.351562 10.671875 23.453125 Z M 17.390625 24.886719 L 16.964844 22.832031 C 16.925781 22.636719 16.75 22.488281 16.570312 22.488281 C 16.558594 22.488281 16.546875 22.492188 16.535156 22.492188 L 14.589844 22.695312 C 14.503906 22.703125 14.429688 22.746094 14.382812 22.8125 C 14.324219 22.890625 14.304688 22.992188 14.328125 23.09375 L 14.75 25.148438 C 14.792969 25.355469 14.984375 25.507812 15.179688 25.488281 L 17.125 25.285156 C 17.210938 25.277344 17.285156 25.234375 17.332031 25.167969 C 17.390625 25.089844 17.410156 24.988281 17.390625 24.886719 Z M 18.757812 24.125 C 18.769531 24.175781 18.816406 24.210938 18.867188 24.207031 L 20.382812 24.050781 C 20.429688 24.042969 20.460938 23.996094 20.449219 23.945312 C 20.441406 23.894531 20.390625 23.855469 20.34375 23.863281 L 18.828125 24.019531 C 18.777344 24.027344 18.746094 24.070312 18.757812 24.125 Z M 23.109375 19.171875 L 21.59375 19.332031 C 21.542969 19.335938 21.511719 19.382812 21.523438 19.433594 C 21.535156 19.484375 21.582031 19.523438 21.632812 19.515625 L 23.148438 19.359375 C 23.195312 19.355469 23.226562 19.308594 23.214844 19.257812 C 23.207031 19.203125 23.15625 19.167969 23.109375 19.171875 Z M 23.90625 23.03125 L 23.234375 23.101562 L 23.273438 23.289062 L 23.945312 23.21875 C 23.992188 23.214844 24.023438 23.167969 24.011719 23.117188 C 24.003906 23.066406 23.953125 23.027344 23.90625 23.03125 Z M 23.273438 23.289062 L 23.234375 23.101562 L 23.089844 22.394531 C 23.078125 22.34375 23.03125 22.304688 22.980469 22.3125 C 22.933594 22.316406 22.902344 22.363281 22.914062 22.414062 L 23.058594 23.121094 L 22.390625 23.191406 C 22.339844 23.195312 22.308594 23.242188 22.320312 23.292969 C 22.332031 23.34375 22.378906 23.382812 22.429688 23.378906 L 23.097656 23.308594 L 23.242188 24.015625 C 23.253906 24.066406 23.300781 24.105469 23.351562 24.101562 C 23.398438 24.09375 23.429688 24.046875 23.417969 23.996094 Z M 21.515625 11.449219 L 20 11.609375 C 19.953125 11.613281 19.921875 11.660156 19.929688 11.710938 C 19.941406 11.761719 19.988281 11.800781 20.039062 11.796875 L 21.554688 11.636719 C 21.601562 11.632812 21.632812 11.585938 21.625 11.535156 C 21.613281 11.484375 21.566406 11.445312 21.515625 11.449219 Z M 20.6875 11.179688 C 20.761719 11.171875 20.8125 11.097656 20.792969 11.019531 C 20.777344 10.9375 20.703125 10.878906 20.625 10.886719 C 20.550781 10.894531 20.5 10.964844 20.515625 11.046875 C 20.535156 11.128906 20.609375 11.1875 20.6875 11.179688 Z M 20.867188 12.066406 C 20.792969 12.074219 20.742188 12.144531 20.761719 12.226562 C 20.777344 12.308594 20.851562 12.367188 20.929688 12.359375 C 21.003906 12.351562 21.054688 12.277344 21.039062 12.199219 C 21.019531 12.117188 20.945312 12.058594 20.867188 12.066406 Z M 18.644531 23.125 C 18.59375 23.128906 18.5625 23.175781 18.574219 23.226562 C 18.585938 23.277344 18.632812 23.316406 18.679688 23.3125 L 20.195312 23.152344 C 20.246094 23.148438 20.277344 23.101562 20.265625 23.050781 C 20.253906 23 20.207031 22.960938 20.160156 22.964844 Z M 18.644531 23.125 " fill-opacity="1" fill-rule="nonzero"/><g clip-path="url(#8181977be5)"><path fill="#1c0072" d="M 26.539062 24.890625 L 21.734375 1.585938 C 21.59375 0.90625 20.957031 0.410156 20.3125 0.476562 L 5.773438 1.992188 C 5.59375 2.011719 5.429688 2.074219 5.289062 2.167969 C 5.285156 2.171875 5.285156 2.171875 5.285156 2.171875 L 3.921875 3.105469 C 3.558594 3.355469 3.386719 3.824219 3.484375 4.296875 L 8.289062 27.601562 C 8.421875 28.238281 8.992188 28.714844 9.59375 28.714844 C 9.632812 28.714844 9.671875 28.714844 9.710938 28.707031 L 24.25 27.191406 C 24.429688 27.171875 24.59375 27.113281 24.738281 27.015625 L 26.101562 26.078125 C 26.105469 26.078125 26.105469 26.078125 26.105469 26.078125 C 26.105469 26.078125 26.105469 26.078125 26.105469 26.074219 C 26.105469 26.074219 26.105469 26.074219 26.109375 26.074219 C 26.199219 26.011719 26.28125 25.929688 26.351562 25.839844 C 26.542969 25.578125 26.609375 25.234375 26.539062 24.890625 Z M 8.429688 27.570312 L 3.621094 4.269531 C 3.535156 3.84375 3.679688 3.445312 4 3.222656 L 4.933594 2.582031 C 4.929688 2.59375 4.921875 2.605469 4.917969 2.617188 C 4.917969 2.621094 4.917969 2.621094 4.917969 2.621094 C 4.914062 2.625 4.910156 2.632812 4.910156 2.636719 C 4.90625 2.644531 4.902344 2.652344 4.902344 2.65625 C 4.886719 2.691406 4.875 2.726562 4.867188 2.753906 L 4.863281 2.761719 C 4.855469 2.792969 4.847656 2.820312 4.84375 2.855469 C 4.839844 2.867188 4.839844 2.875 4.835938 2.886719 C 4.835938 2.894531 4.835938 2.90625 4.832031 2.914062 C 4.832031 2.914062 4.832031 2.917969 4.832031 2.917969 C 4.832031 2.9375 4.828125 2.953125 4.824219 2.972656 L 4.824219 2.996094 C 4.820312 3.007812 4.824219 3.019531 4.820312 3.035156 C 4.820312 3.039062 4.820312 3.046875 4.820312 3.054688 C 4.820312 3.070312 4.820312 3.085938 4.820312 3.101562 C 4.820312 3.109375 4.820312 3.113281 4.820312 3.121094 L 4.820312 3.128906 C 4.820312 3.15625 4.824219 3.1875 4.824219 3.21875 C 4.828125 3.230469 4.828125 3.238281 4.828125 3.246094 C 4.832031 3.289062 4.839844 3.328125 4.847656 3.359375 L 9.652344 26.664062 C 9.679688 26.785156 9.71875 26.898438 9.769531 27.003906 C 9.789062 27.039062 9.808594 27.074219 9.828125 27.105469 C 9.828125 27.109375 9.828125 27.109375 9.828125 27.109375 C 9.847656 27.140625 9.871094 27.171875 9.890625 27.203125 C 9.894531 27.207031 9.894531 27.207031 9.894531 27.210938 C 9.917969 27.238281 9.941406 27.265625 9.964844 27.296875 C 9.964844 27.296875 9.96875 27.300781 9.96875 27.300781 C 9.992188 27.328125 10.015625 27.355469 10.042969 27.382812 C 10.042969 27.382812 10.046875 27.386719 10.050781 27.386719 C 10.074219 27.414062 10.101562 27.4375 10.128906 27.460938 C 10.128906 27.460938 10.132812 27.460938 10.132812 27.464844 C 10.160156 27.484375 10.1875 27.507812 10.214844 27.527344 C 10.21875 27.53125 10.21875 27.53125 10.222656 27.535156 C 10.25 27.554688 10.277344 27.570312 10.304688 27.589844 C 10.3125 27.589844 10.316406 27.59375 10.320312 27.597656 C 10.347656 27.613281 10.375 27.628906 10.402344 27.644531 C 10.410156 27.644531 10.417969 27.648438 10.425781 27.652344 C 10.453125 27.667969 10.480469 27.679688 10.507812 27.691406 C 10.515625 27.691406 10.523438 27.695312 10.53125 27.699219 C 10.558594 27.710938 10.585938 27.71875 10.613281 27.726562 C 10.621094 27.730469 10.632812 27.730469 10.640625 27.734375 C 10.667969 27.742188 10.695312 27.75 10.726562 27.753906 C 10.734375 27.757812 10.742188 27.757812 10.75 27.761719 C 10.78125 27.765625 10.808594 27.769531 10.839844 27.773438 C 10.847656 27.773438 10.855469 27.773438 10.859375 27.773438 C 10.890625 27.777344 10.921875 27.777344 10.953125 27.777344 C 10.953125 27.777344 10.957031 27.78125 10.960938 27.78125 C 10.964844 27.78125 10.964844 27.777344 10.96875 27.777344 C 11.003906 27.777344 11.035156 27.777344 11.066406 27.773438 C 11.070312 27.773438 11.074219 27.773438 11.078125 27.773438 L 25.589844 26.257812 L 24.660156 26.898438 C 24.535156 26.984375 24.390625 27.035156 24.234375 27.050781 L 9.699219 28.570312 C 9.125 28.628906 8.554688 28.183594 8.429688 27.570312 Z M 25.601562 26.117188 L 11.0625 27.632812 C 10.488281 27.691406 9.917969 27.246094 9.792969 26.636719 L 4.984375 3.332031 C 4.921875 3.027344 4.984375 2.722656 5.152344 2.492188 C 5.304688 2.289062 5.527344 2.160156 5.789062 2.132812 L 20.328125 0.617188 C 20.359375 0.613281 20.394531 0.609375 20.429688 0.609375 C 20.96875 0.609375 21.476562 1.039062 21.59375 1.613281 L 26.402344 24.917969 C 26.464844 25.222656 26.40625 25.527344 26.238281 25.753906 C 26.085938 25.960938 25.859375 26.089844 25.601562 26.117188 Z M 21.21875 7.328125 C 21.300781 7.21875 21.328125 7.074219 21.300781 6.929688 L 20.410156 2.609375 C 20.351562 2.328125 20.085938 2.125 19.816406 2.152344 L 6.921875 3.496094 C 6.796875 3.511719 6.683594 3.574219 6.609375 3.671875 C 6.53125 3.78125 6.5 3.929688 6.53125 4.070312 L 7.421875 8.390625 C 7.476562 8.65625 7.710938 8.851562 7.960938 8.851562 C 7.980469 8.851562 7.996094 8.851562 8.011719 8.851562 L 20.910156 7.503906 C 21.035156 7.492188 21.144531 7.429688 21.21875 7.328125 Z M 7.558594 8.363281 L 6.667969 4.042969 C 6.648438 3.9375 6.667969 3.835938 6.722656 3.757812 C 6.773438 3.6875 6.851562 3.644531 6.9375 3.636719 L 19.832031 2.289062 C 20.03125 2.269531 20.226562 2.425781 20.269531 2.636719 L 21.160156 6.957031 C 21.183594 7.0625 21.164062 7.167969 21.105469 7.246094 C 21.054688 7.3125 20.980469 7.355469 20.894531 7.363281 L 7.996094 8.710938 C 7.800781 8.730469 7.601562 8.574219 7.558594 8.363281 Z M 20.171875 21.949219 L 18.230469 22.152344 C 18.105469 22.164062 17.996094 22.226562 17.921875 22.328125 C 17.839844 22.433594 17.8125 22.578125 17.84375 22.71875 L 18.265625 24.773438 C 18.320312 25.03125 18.554688 25.226562 18.800781 25.226562 C 18.816406 25.226562 18.832031 25.226562 18.851562 25.226562 L 20.792969 25.023438 C 20.917969 25.007812 21.027344 24.949219 21.101562 24.847656 C 21.183594 24.738281 21.210938 24.597656 21.183594 24.453125 L 20.757812 22.402344 C 20.699219 22.125 20.4375 21.921875 20.171875 21.949219 Z M 20.621094 22.429688 L 21.042969 24.484375 C 21.0625 24.585938 21.042969 24.6875 20.988281 24.765625 C 20.9375 24.832031 20.863281 24.875 20.777344 24.882812 L 18.835938 25.085938 C 18.640625 25.105469 18.445312 24.953125 18.402344 24.746094 L 17.980469 22.691406 C 17.960938 22.589844 17.980469 22.484375 18.035156 22.410156 C 18.085938 22.34375 18.160156 22.300781 18.246094 22.289062 L 20.1875 22.089844 C 20.382812 22.066406 20.578125 22.222656 20.621094 22.429688 Z M 21.441406 9.984375 L 19.496094 10.1875 C 19.371094 10.199219 19.261719 10.261719 19.1875 10.363281 C 19.109375 10.46875 19.078125 10.613281 19.109375 10.753906 L 19.53125 12.808594 C 19.585938 13.070312 19.820312 13.265625 20.066406 13.265625 C 20.082031 13.265625 20.101562 13.261719 20.117188 13.261719 L 22.058594 13.058594 C 22.183594 13.046875 22.292969 12.984375 22.367188 12.882812 C 22.449219 12.777344 22.476562 12.632812 22.445312 12.492188 L 22.023438 10.4375 C 21.964844 10.160156 21.703125 9.957031 21.441406 9.984375 Z M 22.253906 12.800781 C 22.203125 12.867188 22.128906 12.910156 22.046875 12.917969 L 20.101562 13.121094 C 19.90625 13.144531 19.714844 12.988281 19.671875 12.78125 L 19.246094 10.726562 C 19.226562 10.625 19.246094 10.519531 19.300781 10.445312 C 19.351562 10.378906 19.425781 10.335938 19.511719 10.328125 L 21.453125 10.125 C 21.464844 10.121094 21.476562 10.121094 21.488281 10.121094 C 21.671875 10.121094 21.84375 10.269531 21.886719 10.464844 L 22.308594 12.519531 C 22.328125 12.621094 22.308594 12.722656 22.253906 12.800781 Z M 22.234375 13.84375 L 20.292969 14.046875 C 20.167969 14.0625 20.058594 14.121094 19.984375 14.222656 C 19.902344 14.332031 19.875 14.472656 19.902344 14.617188 L 20.328125 16.667969 C 20.382812 16.929688 20.617188 17.125 20.863281 17.125 C 20.878906 17.125 20.898438 17.125 20.914062 17.121094 L 22.855469 16.917969 C 22.980469 16.90625 23.089844 16.84375 23.164062 16.746094 C 23.242188 16.636719 23.273438 16.492188 23.242188 16.351562 L 22.820312 14.296875 C 22.761719 14.019531 22.5 13.816406 22.234375 13.84375 Z M 23.050781 16.660156 C 23 16.730469 22.925781 16.769531 22.839844 16.78125 L 20.898438 16.980469 C 20.703125 17.003906 20.507812 16.847656 20.464844 16.640625 L 20.042969 14.589844 C 20.023438 14.484375 20.042969 14.382812 20.097656 14.304688 C 20.148438 14.238281 20.222656 14.195312 20.308594 14.1875 L 22.25 13.984375 C 22.261719 13.984375 22.273438 13.984375 22.285156 13.984375 C 22.46875 13.984375 22.640625 14.128906 22.679688 14.324219 L 23.105469 16.378906 C 23.125 16.484375 23.105469 16.585938 23.050781 16.660156 Z M 23.03125 17.707031 L 21.089844 17.910156 C 20.964844 17.921875 20.851562 17.984375 20.78125 18.085938 C 20.699219 18.191406 20.671875 18.335938 20.699219 18.476562 L 21.125 20.53125 C 21.175781 20.789062 21.410156 20.984375 21.660156 20.984375 C 21.675781 20.984375 21.691406 20.984375 21.707031 20.984375 L 23.652344 20.78125 C 23.777344 20.765625 23.886719 20.703125 23.960938 20.605469 C 24.039062 20.496094 24.070312 20.355469 24.039062 20.210938 L 23.617188 18.160156 C 23.558594 17.882812 23.296875 17.679688 23.03125 17.707031 Z M 23.847656 20.523438 C 23.796875 20.589844 23.722656 20.632812 23.636719 20.640625 L 21.695312 20.84375 C 21.5 20.863281 21.304688 20.710938 21.261719 20.503906 L 20.839844 18.449219 C 20.816406 18.347656 20.839844 18.242188 20.894531 18.167969 C 20.945312 18.101562 21.019531 18.058594 21.105469 18.046875 L 23.046875 17.847656 C 23.058594 17.84375 23.070312 17.84375 23.082031 17.84375 C 23.265625 17.84375 23.4375 17.992188 23.476562 18.1875 L 23.902344 20.242188 C 23.921875 20.34375 23.902344 20.445312 23.847656 20.523438 Z M 23.828125 21.566406 L 21.886719 21.769531 C 21.757812 21.78125 21.648438 21.84375 21.578125 21.945312 C 21.496094 22.054688 21.46875 22.195312 21.496094 22.339844 L 21.921875 24.390625 C 21.972656 24.652344 22.210938 24.847656 22.457031 24.847656 C 22.472656 24.847656 22.488281 24.847656 22.503906 24.84375 L 24.449219 24.640625 C 24.574219 24.628906 24.683594 24.566406 24.757812 24.464844 C 24.835938 24.359375 24.863281 24.214844 24.835938 24.074219 L 24.414062 22.019531 C 24.355469 21.742188 24.09375 21.539062 23.828125 21.566406 Z M 24.695312 24.101562 C 24.71875 24.203125 24.699219 24.308594 24.640625 24.382812 C 24.59375 24.449219 24.519531 24.492188 24.433594 24.5 L 22.492188 24.703125 C 22.296875 24.722656 22.101562 24.570312 22.058594 24.363281 L 21.636719 22.308594 C 21.613281 22.207031 21.632812 22.105469 21.691406 22.027344 C 21.738281 21.960938 21.816406 21.917969 21.898438 21.910156 L 23.84375 21.707031 C 23.855469 21.707031 23.867188 21.703125 23.878906 21.703125 C 24.058594 21.703125 24.234375 21.851562 24.273438 22.046875 Z M 20.863281 8.011719 L 19.25 8.179688 C 19.082031 8.195312 18.9375 8.28125 18.839844 8.410156 C 18.734375 8.554688 18.695312 8.746094 18.734375 8.9375 C 18.804688 9.289062 19.121094 9.550781 19.453125 9.550781 C 19.472656 9.550781 19.496094 9.546875 19.515625 9.546875 L 21.132812 9.378906 C 21.300781 9.359375 21.445312 9.277344 21.542969 9.144531 C 21.648438 9 21.6875 8.808594 21.648438 8.621094 C 21.570312 8.246094 21.21875 7.972656 20.863281 8.011719 Z M 21.511719 8.648438 C 21.542969 8.800781 21.511719 8.949219 21.429688 9.0625 C 21.355469 9.164062 21.246094 9.226562 21.117188 9.238281 L 19.503906 9.40625 C 19.21875 9.4375 18.933594 9.214844 18.871094 8.910156 C 18.839844 8.757812 18.871094 8.605469 18.953125 8.496094 C 19.027344 8.394531 19.136719 8.332031 19.261719 8.320312 L 20.878906 8.152344 C 21.164062 8.121094 21.449219 8.34375 21.511719 8.648438 Z M 9.949219 18.265625 L 11.890625 18.0625 C 12.015625 18.050781 12.125 17.988281 12.199219 17.886719 C 12.28125 17.78125 12.308594 17.636719 12.28125 17.496094 L 11.855469 15.441406 C 11.800781 15.164062 11.535156 14.960938 11.269531 14.988281 L 9.328125 15.191406 C 9.203125 15.203125 9.09375 15.265625 9.019531 15.367188 C 8.941406 15.476562 8.910156 15.617188 8.941406 15.761719 L 9.363281 17.8125 C 9.417969 18.074219 9.652344 18.269531 9.898438 18.269531 C 9.914062 18.269531 9.933594 18.269531 9.949219 18.265625 Z M 9.503906 17.785156 L 9.078125 15.730469 C 9.058594 15.628906 9.078125 15.527344 9.132812 15.449219 C 9.183594 15.382812 9.257812 15.339844 9.34375 15.332031 L 11.285156 15.128906 C 11.480469 15.109375 11.675781 15.261719 11.71875 15.46875 L 12.140625 17.523438 C 12.164062 17.625 12.140625 17.730469 12.085938 17.804688 C 12.035156 17.871094 11.960938 17.914062 11.875 17.921875 L 9.933594 18.125 C 9.738281 18.148438 9.546875 17.992188 9.503906 17.785156 Z M 18.371094 10.820312 C 18.3125 10.542969 18.050781 10.339844 17.785156 10.367188 L 15.839844 10.570312 C 15.714844 10.582031 15.605469 10.644531 15.53125 10.742188 C 15.453125 10.851562 15.421875 10.996094 15.453125 11.136719 L 15.875 13.191406 C 15.929688 13.449219 16.164062 13.644531 16.414062 13.644531 C 16.429688 13.644531 16.445312 13.644531 16.460938 13.644531 L 18.40625 13.441406 C 18.53125 13.425781 18.640625 13.363281 18.714844 13.265625 C 18.792969 13.15625 18.820312 13.015625 18.792969 12.871094 Z M 18.390625 13.300781 L 16.445312 13.503906 C 16.25 13.523438 16.058594 13.371094 16.015625 13.160156 L 15.589844 11.109375 C 15.570312 11.003906 15.589844 10.902344 15.644531 10.828125 C 15.695312 10.757812 15.769531 10.71875 15.855469 10.707031 L 17.800781 10.503906 C 17.996094 10.484375 18.1875 10.636719 18.230469 10.847656 L 18.652344 12.898438 C 18.675781 13.003906 18.65625 13.105469 18.597656 13.183594 C 18.550781 13.25 18.476562 13.292969 18.390625 13.300781 Z M 12.808594 14.023438 L 14.75 13.820312 C 14.875 13.808594 14.984375 13.746094 15.058594 13.644531 C 15.140625 13.539062 15.167969 13.394531 15.136719 13.253906 L 14.714844 11.199219 C 14.65625 10.921875 14.394531 10.71875 14.128906 10.746094 L 12.1875 10.949219 C 12.0625 10.964844 11.953125 11.023438 11.878906 11.125 C 11.796875 11.234375 11.769531 11.375 11.796875 11.519531 L 12.222656 13.570312 C 12.277344 13.832031 12.511719 14.027344 12.757812 14.027344 C 12.773438 14.027344 12.789062 14.027344 12.808594 14.023438 Z M 12.359375 13.542969 L 11.9375 11.488281 C 11.917969 11.386719 11.9375 11.285156 11.992188 11.207031 C 12.042969 11.140625 12.117188 11.097656 12.203125 11.089844 L 14.144531 10.886719 C 14.15625 10.886719 14.167969 10.886719 14.179688 10.886719 C 14.363281 10.886719 14.535156 11.03125 14.578125 11.226562 L 15 13.28125 C 15.019531 13.382812 15 13.488281 14.945312 13.5625 C 14.894531 13.628906 14.820312 13.671875 14.734375 13.679688 L 12.792969 13.882812 C 12.597656 13.90625 12.402344 13.75 12.359375 13.542969 Z M 9.152344 14.40625 L 11.09375 14.203125 C 11.222656 14.191406 11.332031 14.128906 11.402344 14.027344 C 11.484375 13.917969 11.511719 13.777344 11.484375 13.632812 L 11.058594 11.582031 C 11.003906 11.304688 10.742188 11.101562 10.476562 11.128906 L 8.53125 11.332031 C 8.40625 11.34375 8.296875 11.40625 8.222656 11.507812 C 8.144531 11.613281 8.113281 11.757812 8.144531 11.898438 L 8.566406 13.953125 C 8.621094 14.214844 8.855469 14.40625 9.101562 14.40625 C 9.121094 14.40625 9.136719 14.40625 9.152344 14.40625 Z M 8.707031 13.925781 L 8.28125 11.871094 C 8.261719 11.769531 8.28125 11.664062 8.335938 11.589844 C 8.386719 11.523438 8.460938 11.480469 8.546875 11.472656 L 10.488281 11.269531 C 10.683594 11.246094 10.878906 11.402344 10.921875 11.609375 L 11.34375 13.664062 C 11.367188 13.765625 11.347656 13.867188 11.289062 13.945312 C 11.238281 14.011719 11.164062 14.054688 11.082031 14.0625 L 9.136719 14.265625 C 8.941406 14.285156 8.75 14.132812 8.707031 13.925781 Z M 19.164062 14.679688 C 19.109375 14.402344 18.847656 14.199219 18.582031 14.226562 L 16.636719 14.429688 C 16.511719 14.441406 16.402344 14.503906 16.328125 14.605469 C 16.25 14.710938 16.21875 14.855469 16.25 14.996094 L 16.671875 17.050781 C 16.726562 17.3125 16.960938 17.507812 17.207031 17.507812 C 17.226562 17.507812 17.242188 17.503906 17.257812 17.503906 L 19.199219 17.300781 C 19.328125 17.289062 19.4375 17.226562 19.507812 17.125 C 19.589844 17.015625 19.617188 16.875 19.589844 16.730469 Z M 19.1875 17.160156 L 17.242188 17.363281 C 17.046875 17.382812 16.855469 17.230469 16.8125 17.023438 L 16.386719 14.96875 C 16.367188 14.867188 16.386719 14.765625 16.441406 14.6875 C 16.492188 14.621094 16.566406 14.578125 16.652344 14.570312 L 18.59375 14.367188 C 18.789062 14.347656 18.984375 14.5 19.027344 14.707031 L 19.449219 16.761719 C 19.472656 16.863281 19.453125 16.964844 19.394531 17.042969 C 19.347656 17.109375 19.269531 17.152344 19.1875 17.160156 Z M 13.019531 17.453125 C 13.070312 17.714844 13.304688 17.910156 13.554688 17.910156 C 13.570312 17.910156 13.585938 17.910156 13.601562 17.90625 L 15.546875 17.703125 C 15.671875 17.691406 15.78125 17.628906 15.855469 17.527344 C 15.933594 17.421875 15.964844 17.277344 15.933594 17.136719 L 15.511719 15.082031 C 15.453125 14.804688 15.191406 14.601562 14.925781 14.628906 L 12.984375 14.832031 C 12.859375 14.84375 12.746094 14.90625 12.675781 15.007812 C 12.59375 15.117188 12.566406 15.257812 12.59375 15.402344 Z M 12.996094 14.972656 L 14.941406 14.769531 C 15.136719 14.75 15.328125 14.902344 15.371094 15.109375 L 15.796875 17.164062 C 15.816406 17.265625 15.796875 17.371094 15.742188 17.445312 C 15.691406 17.511719 15.617188 17.554688 15.53125 17.5625 L 13.589844 17.765625 C 13.394531 17.785156 13.199219 17.632812 13.15625 17.425781 L 12.734375 15.371094 C 12.710938 15.269531 12.730469 15.167969 12.789062 15.089844 C 12.839844 15.023438 12.914062 14.980469 12.996094 14.972656 Z M 13.816406 21.292969 C 13.867188 21.554688 14.101562 21.746094 14.351562 21.746094 C 14.367188 21.746094 14.382812 21.746094 14.398438 21.746094 L 16.34375 21.542969 C 16.46875 21.53125 16.578125 21.46875 16.652344 21.367188 C 16.730469 21.257812 16.761719 21.117188 16.730469 20.976562 L 16.308594 18.921875 C 16.25 18.644531 15.988281 18.441406 15.722656 18.46875 L 13.78125 18.671875 C 13.652344 18.683594 13.542969 18.746094 13.46875 18.847656 C 13.390625 18.953125 13.363281 19.097656 13.390625 19.238281 Z M 13.792969 18.8125 L 15.738281 18.609375 C 15.75 18.609375 15.761719 18.605469 15.773438 18.605469 C 15.957031 18.605469 16.128906 18.753906 16.167969 18.949219 L 16.59375 21.003906 C 16.613281 21.105469 16.59375 21.207031 16.539062 21.285156 C 16.488281 21.351562 16.414062 21.394531 16.328125 21.402344 L 14.382812 21.605469 C 14.191406 21.625 13.996094 21.472656 13.953125 21.265625 L 13.53125 19.210938 C 13.507812 19.109375 13.527344 19.007812 13.585938 18.929688 C 13.632812 18.863281 13.707031 18.820312 13.792969 18.8125 Z M 19.960938 18.539062 C 19.90625 18.261719 19.640625 18.058594 19.378906 18.085938 L 17.433594 18.289062 C 17.308594 18.304688 17.199219 18.367188 17.125 18.464844 C 17.046875 18.574219 17.015625 18.71875 17.046875 18.859375 L 17.46875 20.910156 C 17.523438 21.171875 17.757812 21.367188 18.003906 21.367188 C 18.019531 21.367188 18.039062 21.367188 18.054688 21.363281 L 19.996094 21.160156 C 20.121094 21.148438 20.234375 21.085938 20.304688 20.984375 C 20.386719 20.878906 20.414062 20.734375 20.386719 20.59375 Z M 19.980469 21.023438 L 18.039062 21.222656 C 17.84375 21.246094 17.652344 21.09375 17.609375 20.882812 L 17.183594 18.832031 C 17.164062 18.726562 17.183594 18.625 17.238281 18.546875 C 17.289062 18.480469 17.363281 18.4375 17.449219 18.429688 L 19.390625 18.226562 C 19.402344 18.226562 19.414062 18.226562 19.425781 18.226562 C 19.609375 18.226562 19.78125 18.371094 19.824219 18.570312 L 20.246094 20.621094 C 20.269531 20.726562 20.25 20.828125 20.191406 20.902344 C 20.140625 20.96875 20.066406 21.011719 19.980469 21.023438 Z M 10.746094 22.125 L 12.6875 21.925781 C 12.8125 21.910156 12.921875 21.847656 12.996094 21.75 C 13.078125 21.640625 13.105469 21.5 13.074219 21.355469 L 12.652344 19.304688 C 12.59375 19.027344 12.332031 18.824219 12.066406 18.851562 L 10.125 19.054688 C 10 19.066406 9.890625 19.128906 9.816406 19.230469 C 9.734375 19.335938 9.707031 19.480469 9.734375 19.621094 L 10.160156 21.675781 C 10.214844 21.933594 10.449219 22.128906 10.695312 22.128906 C 10.710938 22.128906 10.726562 22.128906 10.746094 22.125 Z M 10.296875 21.644531 L 9.875 19.59375 C 9.855469 19.492188 9.875 19.386719 9.929688 19.3125 C 9.980469 19.242188 10.054688 19.203125 10.140625 19.191406 L 12.082031 18.992188 C 12.09375 18.988281 12.105469 18.988281 12.117188 18.988281 C 12.300781 18.988281 12.472656 19.136719 12.515625 19.332031 L 12.9375 21.386719 C 12.957031 21.488281 12.9375 21.589844 12.882812 21.664062 C 12.832031 21.734375 12.757812 21.773438 12.671875 21.785156 L 10.730469 21.988281 C 10.535156 22.007812 10.339844 21.855469 10.296875 21.644531 Z M 11.492188 25.992188 C 11.507812 25.992188 11.523438 25.988281 11.539062 25.988281 L 13.484375 25.785156 C 13.609375 25.773438 13.71875 25.710938 13.792969 25.609375 C 13.871094 25.503906 13.902344 25.359375 13.871094 25.21875 L 13.449219 23.164062 C 13.390625 22.886719 13.128906 22.683594 12.863281 22.710938 L 10.921875 22.914062 C 10.796875 22.925781 10.6875 22.988281 10.613281 23.089844 C 10.53125 23.199219 10.503906 23.339844 10.53125 23.480469 L 10.957031 25.535156 C 11.007812 25.796875 11.246094 25.992188 11.492188 25.992188 Z M 10.933594 23.054688 L 12.878906 22.851562 C 13.074219 22.832031 13.265625 22.984375 13.308594 23.191406 L 13.734375 25.246094 C 13.753906 25.347656 13.734375 25.453125 13.679688 25.527344 C 13.628906 25.59375 13.554688 25.636719 13.46875 25.644531 L 11.527344 25.847656 C 11.332031 25.867188 11.136719 25.714844 11.09375 25.507812 L 10.671875 23.453125 C 10.648438 23.351562 10.671875 23.25 10.726562 23.171875 C 10.777344 23.105469 10.851562 23.0625 10.933594 23.054688 Z M 16.519531 22.351562 L 14.574219 22.554688 C 14.449219 22.566406 14.339844 22.628906 14.265625 22.730469 C 14.1875 22.835938 14.160156 22.980469 14.1875 23.121094 L 14.609375 25.175781 C 14.664062 25.4375 14.898438 25.632812 15.148438 25.632812 C 15.164062 25.632812 15.179688 25.628906 15.195312 25.628906 L 17.140625 25.425781 C 17.265625 25.414062 17.375 25.351562 17.449219 25.25 C 17.527344 25.144531 17.558594 25 17.527344 24.859375 L 17.105469 22.804688 C 17.046875 22.527344 16.785156 22.324219 16.519531 22.351562 Z M 17.125 25.285156 L 15.179688 25.488281 C 14.984375 25.507812 14.792969 25.355469 14.75 25.148438 L 14.328125 23.09375 C 14.304688 22.992188 14.324219 22.890625 14.382812 22.8125 C 14.429688 22.746094 14.503906 22.703125 14.589844 22.695312 L 16.535156 22.492188 C 16.546875 22.492188 16.558594 22.488281 16.570312 22.488281 C 16.75 22.488281 16.925781 22.636719 16.964844 22.832031 L 17.390625 24.886719 C 17.410156 24.988281 17.390625 25.089844 17.332031 25.167969 C 17.285156 25.234375 17.210938 25.277344 17.125 25.285156 Z M 17.125 25.285156 " fill-opacity="1" fill-rule="nonzero"/></g></svg>