<svg xmlns="http://www.w3.org/2000/svg" xmlns:xlink="http://www.w3.org/1999/xlink" width="160" zoomAndPan="magnify" viewBox="0 0 120 74.999997" height="100" preserveAspectRatio="xMidYMid meet" version="1.0"><defs><g/></defs><g fill="#ff00ff" fill-opacity="1"><g transform="translate(22.999999, 32.723923)"><g><path d="M 12.226562 0 C 13.824219 0 15.101562 -1.3125 15.101562 -2.875 L 15.101562 -14.382812 L 6.472656 -14.382812 L 6.472656 -11.507812 L 12.226562 -11.507812 L 12.226562 -2.875 L 3.597656 -2.875 L 3.597656 -5.753906 L 0.71875 -5.753906 L 0.71875 -2.875 C 0.71875 -1.292969 2.011719 0 3.597656 0 Z M 12.226562 0 "/></g></g></g><g fill="#ff00ff" fill-opacity="1"><g transform="translate(41.662269, 32.723923)"><g><path d="M 3.597656 -14.382812 C 2.011719 -14.382812 0.71875 -13.089844 0.71875 -11.507812 L 0.71875 0 L 3.597656 0 L 3.597656 -5.753906 L 12.226562 -5.753906 L 12.226562 0 L 15.101562 0 L 15.101562 -11.507812 C 15.101562 -13.089844 13.808594 -14.382812 12.226562 -14.382812 Z M 3.597656 -11.507812 L 12.226562 -11.507812 L 12.226562 -8.628906 L 3.597656 -8.628906 Z M 3.597656 -11.507812 "/></g></g></g><g fill="#ff00ff" fill-opacity="1"><g transform="translate(60.32454, 32.723923)"><g><path d="M 7.910156 0 C 8.539062 0 9.1875 -0.234375 9.707031 -0.683594 L 14.5625 -4.855469 C 14.90625 -5.160156 15.085938 -5.539062 15.085938 -6.003906 L 15.101562 -14.382812 L 12.226562 -14.382812 L 12.226562 -6.652344 L 7.910156 -2.929688 L 3.597656 -6.652344 L 3.597656 -14.382812 L 0.71875 -14.382812 L 0.71875 -6.003906 C 0.71875 -5.554688 0.917969 -5.160156 1.257812 -4.855469 L 6.113281 -0.683594 C 6.652344 -0.234375 7.28125 0 7.910156 0 Z M 7.910156 0 "/></g></g></g><g fill="#ff00ff" fill-opacity="1"><g transform="translate(78.986813, 32.723923)"><g><path d="M 3.597656 -14.382812 C 2.011719 -14.382812 0.71875 -13.089844 0.71875 -11.507812 L 0.71875 0 L 3.597656 0 L 3.597656 -5.753906 L 12.226562 -5.753906 L 12.226562 0 L 15.101562 0 L 15.101562 -11.507812 C 15.101562 -13.089844 13.808594 -14.382812 12.226562 -14.382812 Z M 3.597656 -11.507812 L 12.226562 -11.507812 L 12.226562 -8.628906 L 3.597656 -8.628906 Z M 3.597656 -11.507812 "/></g></g></g><g fill="#00ffff" fill-opacity="1"><g transform="translate(25.189783, 33.229473)"><g><path d="M 12.226562 0 C 13.824219 0 15.101562 -1.3125 15.101562 -2.875 L 15.101562 -14.382812 L 6.472656 -14.382812 L 6.472656 -11.507812 L 12.226562 -11.507812 L 12.226562 -2.875 L 3.597656 -2.875 L 3.597656 -5.753906 L 0.71875 -5.753906 L 0.71875 -2.875 C 0.71875 -1.292969 2.011719 0 3.597656 0 Z M 12.226562 0 "/></g></g></g><g fill="#00ffff" fill-opacity="1"><g transform="translate(43.852053, 33.229473)"><g><path d="M 3.597656 -14.382812 C 2.011719 -14.382812 0.71875 -13.089844 0.71875 -11.507812 L 0.71875 0 L 3.597656 0 L 3.597656 -5.753906 L 12.226562 -5.753906 L 12.226562 0 L 15.101562 0 L 15.101562 -11.507812 C 15.101562 -13.089844 13.808594 -14.382812 12.226562 -14.382812 Z M 3.597656 -11.507812 L 12.226562 -11.507812 L 12.226562 -8.628906 L 3.597656 -8.628906 Z M 3.597656 -11.507812 "/></g></g></g><g fill="#00ffff" fill-opacity="1"><g transform="translate(62.514324, 33.229473)"><g><path d="M 7.910156 0 C 8.539062 0 9.1875 -0.234375 9.707031 -0.683594 L 14.5625 -4.855469 C 14.90625 -5.160156 15.085938 -5.539062 15.085938 -6.003906 L 15.101562 -14.382812 L 12.226562 -14.382812 L 12.226562 -6.652344 L 7.910156 -2.929688 L 3.597656 -6.652344 L 3.597656 -14.382812 L 0.71875 -14.382812 L 0.71875 -6.003906 C 0.71875 -5.554688 0.917969 -5.160156 1.257812 -4.855469 L 6.113281 -0.683594 C 6.652344 -0.234375 7.28125 0 7.910156 0 Z M 7.910156 0 "/></g></g></g><g fill="#00ffff" fill-opacity="1"><g transform="translate(81.176597, 33.229473)"><g><path d="M 3.597656 -14.382812 C 2.011719 -14.382812 0.71875 -13.089844 0.71875 -11.507812 L 0.71875 0 L 3.597656 0 L 3.597656 -5.753906 L 12.226562 -5.753906 L 12.226562 0 L 15.101562 0 L 15.101562 -11.507812 C 15.101562 -13.089844 13.808594 -14.382812 12.226562 -14.382812 Z M 3.597656 -11.507812 L 12.226562 -11.507812 L 12.226562 -8.628906 L 3.597656 -8.628906 Z M 3.597656 -11.507812 "/></g></g></g><g fill="#ffffff" fill-opacity="1"><g transform="translate(24.094891, 32.976698)"><g><path d="M 12.226562 0 C 13.824219 0 15.101562 -1.3125 15.101562 -2.875 L 15.101562 -14.382812 L 6.472656 -14.382812 L 6.472656 -11.507812 L 12.226562 -11.507812 L 12.226562 -2.875 L 3.597656 -2.875 L 3.597656 -5.753906 L 0.71875 -5.753906 L 0.71875 -2.875 C 0.71875 -1.292969 2.011719 0 3.597656 0 Z M 12.226562 0 "/></g></g></g><g fill="#ffffff" fill-opacity="1"><g transform="translate(42.757161, 32.976698)"><g><path d="M 3.597656 -14.382812 C 2.011719 -14.382812 0.71875 -13.089844 0.71875 -11.507812 L 0.71875 0 L 3.597656 0 L 3.597656 -5.753906 L 12.226562 -5.753906 L 12.226562 0 L 15.101562 0 L 15.101562 -11.507812 C 15.101562 -13.089844 13.808594 -14.382812 12.226562 -14.382812 Z M 3.597656 -11.507812 L 12.226562 -11.507812 L 12.226562 -8.628906 L 3.597656 -8.628906 Z M 3.597656 -11.507812 "/></g></g></g><g fill="#ffffff" fill-opacity="1"><g transform="translate(61.419432, 32.976698)"><g><path d="M 7.910156 0 C 8.539062 0 9.1875 -0.234375 9.707031 -0.683594 L 14.5625 -4.855469 C 14.90625 -5.160156 15.085938 -5.539062 15.085938 -6.003906 L 15.101562 -14.382812 L 12.226562 -14.382812 L 12.226562 -6.652344 L 7.910156 -2.929688 L 3.597656 -6.652344 L 3.597656 -14.382812 L 0.71875 -14.382812 L 0.71875 -6.003906 C 0.71875 -5.554688 0.917969 -5.160156 1.257812 -4.855469 L 6.113281 -0.683594 C 6.652344 -0.234375 7.28125 0 7.910156 0 Z M 7.910156 0 "/></g></g></g><g fill="#ffffff" fill-opacity="1"><g transform="translate(80.081705, 32.976698)"><g><path d="M 3.597656 -14.382812 C 2.011719 -14.382812 0.71875 -13.089844 0.71875 -11.507812 L 0.71875 0 L 3.597656 0 L 3.597656 -5.753906 L 12.226562 -5.753906 L 12.226562 0 L 15.101562 0 L 15.101562 -11.507812 C 15.101562 -13.089844 13.808594 -14.382812 12.226562 -14.382812 Z M 3.597656 -11.507812 L 12.226562 -11.507812 L 12.226562 -8.628906 L 3.597656 -8.628906 Z M 3.597656 -11.507812 "/></g></g></g><g fill="#ff00ff" fill-opacity="1"><g transform="translate(4.337641, 50.702995)"><g><path d="M 15.101562 -14.382812 L 3.597656 -14.382812 C 2.011719 -14.382812 0.71875 -13.089844 0.71875 -11.507812 L 0.71875 -8.628906 C 0.71875 -7.046875 2.011719 -5.753906 3.597656 -5.753906 L 12.226562 -5.753906 L 12.226562 -2.875 L 0.71875 -2.875 L 0.71875 0 L 12.226562 0 C 13.808594 0 15.101562 -1.292969 15.101562 -2.875 L 15.101562 -5.753906 C 15.101562 -7.335938 13.808594 -8.628906 12.226562 -8.628906 L 3.597656 -8.628906 L 3.597656 -11.507812 L 15.101562 -11.507812 Z M 15.101562 -14.382812 "/></g></g></g><g fill="#ff00ff" fill-opacity="1"><g transform="translate(22.999911, 50.702995)"><g><path d="M 15.101562 0 L 15.101562 -2.875 L 3.597656 -2.875 L 3.597656 -11.507812 L 15.101562 -11.507812 L 15.101562 -14.382812 L 3.597656 -14.382812 C 2.011719 -14.382812 0.71875 -13.089844 0.71875 -11.507812 L 0.71875 -2.875 C 0.71875 -1.292969 2.011719 0 3.597656 0 Z M 15.101562 0 "/></g></g></g><g fill="#ff00ff" fill-opacity="1"><g transform="translate(41.662181, 50.702995)"><g><path d="M 15.101562 -11.507812 C 15.101562 -13.089844 13.808594 -14.382812 12.226562 -14.382812 L 0.71875 -14.382812 L 0.71875 0 L 3.597656 0 L 3.597656 -5.753906 L 5.285156 -5.753906 L 10.609375 -0.429688 C 10.894531 -0.144531 11.253906 0 11.652344 0 L 15.101562 0 L 15.101562 -2.875 L 12.226562 -2.875 L 9.347656 -5.753906 L 12.226562 -5.753906 C 13.808594 -5.753906 15.101562 -7.046875 15.101562 -8.628906 Z M 12.226562 -11.507812 L 12.226562 -8.628906 L 3.597656 -8.628906 L 3.597656 -11.507812 Z M 12.226562 -11.507812 "/></g></g></g><g fill="#ff00ff" fill-opacity="1"><g transform="translate(60.324455, 50.702995)"><g><path d="M 15.101562 0 L 15.101562 -2.875 L 9.347656 -2.875 L 9.347656 -11.507812 L 15.101562 -11.507812 L 15.101562 -14.382812 L 0.71875 -14.382812 L 0.71875 -11.507812 L 6.472656 -11.507812 L 6.472656 -2.875 L 0.71875 -2.875 L 0.71875 0 Z M 15.101562 0 "/></g></g></g><g fill="#ff00ff" fill-opacity="1"><g transform="translate(78.986722, 50.702995)"><g><path d="M 12.226562 -14.382812 L 0.71875 -14.382812 L 0.71875 0 L 3.597656 0 L 3.597656 -5.753906 L 12.226562 -5.753906 C 13.808594 -5.753906 15.101562 -7.046875 15.101562 -8.628906 L 15.101562 -11.507812 C 15.101562 -13.089844 13.808594 -14.382812 12.226562 -14.382812 Z M 3.597656 -8.628906 L 3.597656 -11.507812 L 12.226562 -11.507812 L 12.226562 -8.628906 Z M 3.597656 -8.628906 "/></g></g></g><g fill="#ff00ff" fill-opacity="1"><g transform="translate(97.64899, 50.702995)"><g><path d="M 15.101562 -14.382812 L 0.71875 -14.382812 L 0.71875 -11.507812 L 6.472656 -11.507812 L 6.472656 0 L 9.347656 0 L 9.347656 -11.507812 L 15.101562 -11.507812 Z M 15.101562 -14.382812 "/></g></g></g><g fill="#00ffff" fill-opacity="1"><g transform="translate(6.527424, 51.208545)"><g><path d="M 15.101562 -14.382812 L 3.597656 -14.382812 C 2.011719 -14.382812 0.71875 -13.089844 0.71875 -11.507812 L 0.71875 -8.628906 C 0.71875 -7.046875 2.011719 -5.753906 3.597656 -5.753906 L 12.226562 -5.753906 L 12.226562 -2.875 L 0.71875 -2.875 L 0.71875 0 L 12.226562 0 C 13.808594 0 15.101562 -1.292969 15.101562 -2.875 L 15.101562 -5.753906 C 15.101562 -7.335938 13.808594 -8.628906 12.226562 -8.628906 L 3.597656 -8.628906 L 3.597656 -11.507812 L 15.101562 -11.507812 Z M 15.101562 -14.382812 "/></g></g></g><g fill="#00ffff" fill-opacity="1"><g transform="translate(25.189695, 51.208545)"><g><path d="M 15.101562 0 L 15.101562 -2.875 L 3.597656 -2.875 L 3.597656 -11.507812 L 15.101562 -11.507812 L 15.101562 -14.382812 L 3.597656 -14.382812 C 2.011719 -14.382812 0.71875 -13.089844 0.71875 -11.507812 L 0.71875 -2.875 C 0.71875 -1.292969 2.011719 0 3.597656 0 Z M 15.101562 0 "/></g></g></g><g fill="#00ffff" fill-opacity="1"><g transform="translate(43.851965, 51.208545)"><g><path d="M 15.101562 -11.507812 C 15.101562 -13.089844 13.808594 -14.382812 12.226562 -14.382812 L 0.71875 -14.382812 L 0.71875 0 L 3.597656 0 L 3.597656 -5.753906 L 5.285156 -5.753906 L 10.609375 -0.429688 C 10.894531 -0.144531 11.253906 0 11.652344 0 L 15.101562 0 L 15.101562 -2.875 L 12.226562 -2.875 L 9.347656 -5.753906 L 12.226562 -5.753906 C 13.808594 -5.753906 15.101562 -7.046875 15.101562 -8.628906 Z M 12.226562 -11.507812 L 12.226562 -8.628906 L 3.597656 -8.628906 L 3.597656 -11.507812 Z M 12.226562 -11.507812 "/></g></g></g><g fill="#00ffff" fill-opacity="1"><g transform="translate(62.514238, 51.208545)"><g><path d="M 15.101562 0 L 15.101562 -2.875 L 9.347656 -2.875 L 9.347656 -11.507812 L 15.101562 -11.507812 L 15.101562 -14.382812 L 0.71875 -14.382812 L 0.71875 -11.507812 L 6.472656 -11.507812 L 6.472656 -2.875 L 0.71875 -2.875 L 0.71875 0 Z M 15.101562 0 "/></g></g></g><g fill="#00ffff" fill-opacity="1"><g transform="translate(81.176506, 51.208545)"><g><path d="M 12.226562 -14.382812 L 0.71875 -14.382812 L 0.71875 0 L 3.597656 0 L 3.597656 -5.753906 L 12.226562 -5.753906 C 13.808594 -5.753906 15.101562 -7.046875 15.101562 -8.628906 L 15.101562 -11.507812 C 15.101562 -13.089844 13.808594 -14.382812 12.226562 -14.382812 Z M 3.597656 -8.628906 L 3.597656 -11.507812 L 12.226562 -11.507812 L 12.226562 -8.628906 Z M 3.597656 -8.628906 "/></g></g></g><g fill="#00ffff" fill-opacity="1"><g transform="translate(99.838774, 51.208545)"><g><path d="M 15.101562 -14.382812 L 0.71875 -14.382812 L 0.71875 -11.507812 L 6.472656 -11.507812 L 6.472656 0 L 9.347656 0 L 9.347656 -11.507812 L 15.101562 -11.507812 Z M 15.101562 -14.382812 "/></g></g></g><g fill="#ffffff" fill-opacity="1"><g transform="translate(5.432532, 50.95577)"><g><path d="M 15.101562 -14.382812 L 3.597656 -14.382812 C 2.011719 -14.382812 0.71875 -13.089844 0.71875 -11.507812 L 0.71875 -8.628906 C 0.71875 -7.046875 2.011719 -5.753906 3.597656 -5.753906 L 12.226562 -5.753906 L 12.226562 -2.875 L 0.71875 -2.875 L 0.71875 0 L 12.226562 0 C 13.808594 0 15.101562 -1.292969 15.101562 -2.875 L 15.101562 -5.753906 C 15.101562 -7.335938 13.808594 -8.628906 12.226562 -8.628906 L 3.597656 -8.628906 L 3.597656 -11.507812 L 15.101562 -11.507812 Z M 15.101562 -14.382812 "/></g></g></g><g fill="#ffffff" fill-opacity="1"><g transform="translate(24.094803, 50.95577)"><g><path d="M 15.101562 0 L 15.101562 -2.875 L 3.597656 -2.875 L 3.597656 -11.507812 L 15.101562 -11.507812 L 15.101562 -14.382812 L 3.597656 -14.382812 C 2.011719 -14.382812 0.71875 -13.089844 0.71875 -11.507812 L 0.71875 -2.875 C 0.71875 -1.292969 2.011719 0 3.597656 0 Z M 15.101562 0 "/></g></g></g><g fill="#ffffff" fill-opacity="1"><g transform="translate(42.757073, 50.95577)"><g><path d="M 15.101562 -11.507812 C 15.101562 -13.089844 13.808594 -14.382812 12.226562 -14.382812 L 0.71875 -14.382812 L 0.71875 0 L 3.597656 0 L 3.597656 -5.753906 L 5.285156 -5.753906 L 10.609375 -0.429688 C 10.894531 -0.144531 11.253906 0 11.652344 0 L 15.101562 0 L 15.101562 -2.875 L 12.226562 -2.875 L 9.347656 -5.753906 L 12.226562 -5.753906 C 13.808594 -5.753906 15.101562 -7.046875 15.101562 -8.628906 Z M 12.226562 -11.507812 L 12.226562 -8.628906 L 3.597656 -8.628906 L 3.597656 -11.507812 Z M 12.226562 -11.507812 "/></g></g></g><g fill="#ffffff" fill-opacity="1"><g transform="translate(61.419346, 50.95577)"><g><path d="M 15.101562 0 L 15.101562 -2.875 L 9.347656 -2.875 L 9.347656 -11.507812 L 15.101562 -11.507812 L 15.101562 -14.382812 L 0.71875 -14.382812 L 0.71875 -11.507812 L 6.472656 -11.507812 L 6.472656 -2.875 L 0.71875 -2.875 L 0.71875 0 Z M 15.101562 0 "/></g></g></g><g fill="#ffffff" fill-opacity="1"><g transform="translate(80.081614, 50.95577)"><g><path d="M 12.226562 -14.382812 L 0.71875 -14.382812 L 0.71875 0 L 3.597656 0 L 3.597656 -5.753906 L 12.226562 -5.753906 C 13.808594 -5.753906 15.101562 -7.046875 15.101562 -8.628906 L 15.101562 -11.507812 C 15.101562 -13.089844 13.808594 -14.382812 12.226562 -14.382812 Z M 3.597656 -8.628906 L 3.597656 -11.507812 L 12.226562 -11.507812 L 12.226562 -8.628906 Z M 3.597656 -8.628906 "/></g></g></g><g fill="#ffffff" fill-opacity="1"><g transform="translate(98.743882, 50.95577)"><g><path d="M 15.101562 -14.382812 L 0.71875 -14.382812 L 0.71875 -11.507812 L 6.472656 -11.507812 L 6.472656 0 L 9.347656 0 L 9.347656 -11.507812 L 15.101562 -11.507812 Z M 15.101562 -14.382812 "/></g></g></g></svg>